<svg xmlns="http://www.w3.org/2000/svg" version="1.1" xmlns:xlink="http://www.w3.org/1999/xlink" xmlns:svgjs="http://svgjs.dev/svgjs" width="1000" height="999" viewBox="0 0 1000 999"><g transform="matrix(1,0,0,1,-0.215743440233382,-0.21552769679306039)"><svg viewBox="0 0 343 343" data-background-color="#ffffff" preserveAspectRatio="xMidYMid meet" height="999" width="1000" xmlns="http://www.w3.org/2000/svg" xmlns:xlink="http://www.w3.org/1999/xlink"><g id="tight-bounds" transform="matrix(1,0,0,1,0.0740000000000407,0.07400000000001228)"><svg viewBox="0 0 342.85155851775386 342.85155851775386" height="342.85155851775386" width="342.85155851775386"><g><svg></svg></g><g><svg viewBox="0 0 342.85155851775386 342.85155851775386" height="342.85155851775386" width="342.85155851775386"><g><path d="M0 171.426c0-94.676 76.75-171.426 171.426-171.426 94.676 0 171.426 76.75 171.426 171.426 0 94.676-76.75 171.426-171.426 171.426-94.676 0-171.426-76.75-171.426-171.426zM171.426 327.538c86.219 0 156.113-69.894 156.112-156.112 0-86.219-69.894-156.113-156.112-156.113-86.219 0-156.113 69.894-156.113 156.113 0 86.219 69.894 156.113 156.113 156.112z" data-fill-palette-color="tertiary" fill="#fe0039" stroke="transparent"></path><ellipse rx="164.56874808852186" ry="164.56874808852186" cx="171.42577925887693" cy="171.42577925887693" fill="#fe0039" stroke="transparent" stroke-width="0" fill-opacity="1" data-fill-palette-color="tertiary"></ellipse></g><g transform="matrix(1,0,0,1,64.84655864529837,86.52346706641924)"><svg viewBox="0 0 213.1584412271571 169.80462438491537" height="169.80462438491537" width="213.1584412271571"><g><svg viewBox="0 0 213.1584412271571 169.80462438491537" height="169.80462438491537" width="213.1584412271571"><g><svg viewBox="0 0 213.1584412271571 169.80462438491537" height="169.80462438491537" width="213.1584412271571"><g><svg viewBox="0 0 213.1584412271571 169.80462438491537" height="169.80462438491537" width="213.1584412271571"><g><svg viewBox="0 0 213.1584412271571 169.80462438491537" height="169.80462438491537" width="213.1584412271571"><g><svg viewBox="0 0 213.1584412271571 169.80462438491537" height="169.80462438491537" width="213.1584412271571"><g transform="matrix(1,0,0,1,0,0)"><svg width="213.1584412271571" viewBox="2 -34.851783752441406 43.75 34.851783752441406" height="169.80462438491537" data-palette-color="#ffffff"><path d="M7.85 0L2.2 0Q2 0 2-0.25L2-0.25 2.1-34.6Q2.1-34.8 2.3-34.8L2.3-34.8 12.4-34.8Q15.1-34.8 17.38-33.48 19.65-32.15 21-29.93 22.35-27.7 22.35-24.9L22.35-24.9Q22.35-23.05 21.8-21.58 21.25-20.1 20.5-19.07 19.75-18.05 19.15-17.55L19.15-17.55Q21.85-14.55 21.85-10.5L21.85-10.5 21.9-0.25Q21.9 0 21.65 0L21.65 0 16 0Q15.8 0 15.8-0.15L15.8-0.15 15.8-10.5Q15.8-12.3 14.53-13.63 13.25-14.95 11.4-14.95L11.4-14.95 8.1-14.95 8.05-0.25Q8.05 0 7.85 0L7.85 0ZM8.1-28.8L8.1-20.95 12.4-20.95Q13.95-20.95 15.15-22.1 16.35-23.25 16.35-24.9L16.35-24.9Q16.35-26.5 15.18-27.65 14-28.8 12.4-28.8L12.4-28.8 8.1-28.8ZM35.3-0.05L26.35 0Q26.1 0 26.1-0.25L26.1-0.25 26.2-34.6Q26.2-34.8 26.4-34.8L26.4-34.8 35.75-34.85Q38.5-34.9 40.77-33.55 43.05-32.2 44.4-29.93 45.75-27.65 45.75-24.9L45.75-24.9 45.75-10.55Q45.75-7.65 44.35-5.28 42.95-2.9 40.6-1.5 38.25-0.1 35.3-0.05L35.3-0.05ZM32.25-28.8L32.2-6.15 35.3-6.15Q37.15-6.15 38.42-7.45 39.7-8.75 39.7-10.55L39.7-10.55 39.7-24.95Q39.7-26.55 38.52-27.73 37.35-28.9 35.75-28.85L35.75-28.85 32.25-28.8Z" opacity="1" transform="matrix(1,0,0,1,0,0)" fill="#ffffff" class="undefined-text-0" data-fill-palette-color="quaternary" id="text-0"></path></svg></g></svg></g></svg></g></svg></g><g></g></svg></g></svg></g></svg></g></svg></g><defs></defs></svg><rect width="342.85155851775386" height="342.85155851775386" fill="none" stroke="none" visibility="hidden"></rect></g></svg></g></svg>